<?xml version="1.0" encoding="UTF-8" standalone="no"?>
<!--Generated by Intaglio, www.PurgatoryDesign.com-->
<svg
   xmlns:dc="http://purl.org/dc/elements/1.1/"
   xmlns:cc="http://web.resource.org/cc/"
   xmlns:rdf="http://www.w3.org/1999/02/22-rdf-syntax-ns#"
   xmlns:svg="http://www.w3.org/2000/svg"
   xmlns="http://www.w3.org/2000/svg"
   xmlns:sodipodi="http://sodipodi.sourceforge.net/DTD/sodipodi-0.dtd"
   xmlns:inkscape="http://www.inkscape.org/namespaces/inkscape"
   version="1.0"
   viewBox="0 0 783 559"
   id="svg2654"
   sodipodi:version="0.32"
   inkscape:version="0.45.1"
   width="743.14417"
   height="531.21997"
   sodipodi:docname="Charleroi.svg"
   sodipodi:docbase="C:\TIIKERI\Liput\Belgia\provinssit\Hainaut - kunnat\Charleroi\svg"
   inkscape:output_extension="org.inkscape.output.svg.inkscape">
  <metadata
     id="metadata2805">
    <rdf:RDF>
      <cc:Work
         rdf:about="">
        <dc:format>image/svg+xml</dc:format>
        <dc:type
           rdf:resource="http://purl.org/dc/dcmitype/StillImage" />
      </cc:Work>
    </rdf:RDF>
  </metadata>
  <defs
     id="defs2803" />
  <sodipodi:namedview
     inkscape:window-height="712"
     inkscape:window-width="1024"
     inkscape:pageshadow="2"
     inkscape:pageopacity="0.0"
     guidetolerance="10.0"
     gridtolerance="10.0"
     objecttolerance="10.0"
     borderopacity="1.0"
     bordercolor="#666666"
     pagecolor="#ffffff"
     id="base"
     inkscape:zoom="0.71410948"
     inkscape:cx="365.38626"
     inkscape:cy="339.08482"
     inkscape:window-x="-4"
     inkscape:window-y="-4"
     inkscape:current-layer="svg2654"
     height="531.22px"
     width="743.14417px" />
  <g
     id="g5424">
    <path
       d="M 0.00219635,-0.3550265 L 782.9978,-0.3550265 L 782.9978,559.35503 L 0.00219635,559.35503 L 0.00219635,-0.3550265 z "
       id="path2658"
       style="fill:#ffffff" />
    <g
       id="g5352">
      <path
         d="M 374.07726,290.43993 C 342.50726,284.10493 309.70126,256.10493 310.49626,220.36293 C 311.21926,205.64693 315.73526,209.69293 316.93726,198.54093 C 313.87726,171.84293 342.77026,155.84593 358.80826,147.99293 C 367.82826,147.04493 372.52026,150.77093 387.50726,149.84493 C 377.30226,154.47393 369.96826,158.17893 370.28726,161.88193 L 378.78026,160.95693 C 378.78026,160.95693 383.83226,167.40193 356.89426,172.06693 C 365.35226,180.43693 370.28826,180.40093 379.85326,178.54893 C 392.29026,174.84493 345.83526,194.69793 377.90426,217.58493 C 378.88126,235.84293 348.93126,214.57893 343.02226,245.88293 C 340.30026,259.22593 361.01526,277.83493 374.07726,290.43993 z "
         id="path2662"
         style="fill:#da121a;fill-opacity:1;fill-rule:evenodd;stroke:#da121a;stroke-width:1.19849002;stroke-opacity:1" />
      <path
         d="M 347.32726,251.23493 C 348.31226,259.92493 374.11426,289.19893 393.24726,298.45893 C 413.33626,304.93993 439.16726,289.19893 442.99426,279.93993 C 448.17426,268.71593 449.01426,250.67493 443.95026,243.28693 C 442.26726,240.46193 423.90326,219.05293 413.33626,217.43893 C 387.54726,213.49693 392.29026,219.75293 381.76726,218.36493 C 381.76726,223.91993 379.85326,228.08693 376.02626,229.93893 C 372.20126,231.79093 367.41726,229.93793 358.32926,232.71593 C 355.45926,233.64293 345.98126,239.36293 347.32726,251.23493 z "
         id="path2664"
         style="fill:#da121a;fill-opacity:1;fill-rule:evenodd;stroke:#da121a;stroke-width:1.19849002;stroke-opacity:1" />
      <path
         d="M 333.79526,275.52593 C 347.03926,310.48593 399.24826,331.34893 429.17726,327.57993 C 413.61826,312.51993 401.44126,316.11993 377.09026,295.16993 C 367.61826,293.85993 344.33326,285.60593 333.79526,275.52593 z "
         id="path2666"
         style="fill:#da121a;fill-opacity:1;fill-rule:evenodd;stroke:#da121a;stroke-width:1.19849002;stroke-opacity:1" />
      <path
         d="M 359.50126,142.61493 C 356.11926,139.34193 360.17626,134.10293 368.29526,130.17393 C 376.41326,126.24593 381.14826,127.55593 384.52926,127.55593 C 402.11826,122.64593 391.63426,122.97293 409.22126,112.16993 C 412.94126,114.56993 427.82426,124.50093 433.23526,130.17393 C 433.68626,175.13293 421.51026,175.13293 419.70626,206.12393 C 415.87326,200.44893 416.09726,186.26493 412.26526,172.07793 C 404.59826,182.77393 398.28526,182.98993 391.29526,191.71993 C 391.29526,186.48293 388.58926,186.48193 387.23526,183.86293 C 386.33426,188.00993 377.31526,193.46693 372.35326,201.54193 C 369.42326,189.21093 390.16826,180.15393 387.91326,172.73193 C 381.82526,172.51393 374.38426,176.22493 366.26526,174.04193 C 387.91226,167.27693 380.47226,165.09393 386.56026,158.98293 C 383.17826,158.32893 382.50026,157.82493 377.96426,158.32893 C 386.76426,153.09093 395.59326,150.67093 395.35426,147.19793 C 395.35426,142.53193 393.54926,138.03093 392.64826,133.44793 C 391.29526,137.59393 389.08626,141.02793 386.43626,144.03593 C 384.15226,146.93893 372.73826,147.12893 371.24026,145.88793 C 367.62226,142.33993 370.32426,138.90393 375.73626,132.79393 C 366.94226,135.41293 363.56026,145.88893 359.50126,142.61493 z "
         id="path2668"
         style="fill:#da121a;fill-opacity:1;fill-rule:evenodd;stroke:#da121a;stroke-width:1.19849002;stroke-opacity:1" />
      <path
         d="M 374.72026,206.77893 C 376.07426,210.05293 380.81026,212.67193 384.86826,213.98193 C 387.57526,210.05293 412.60526,211.36293 411.92726,211.36293 C 409.22126,203.83293 407.86826,195.64793 409.89826,181.57193 C 405.83926,184.84493 396.03126,191.06493 388.59026,204.15993 C 386.56026,200.23193 388.58926,197.61393 386.56026,192.37493 C 383.74226,197.39493 375.51026,201.75993 374.72026,206.77893 z "
         id="path2670"
         style="fill:#da121a;fill-opacity:1;fill-rule:evenodd;stroke:#da121a;stroke-width:1.19849002;stroke-opacity:1" />
      <path
         d="M 375.73726,321.35893 C 377.09126,351.69493 394.67726,367.62693 397.38326,366.53693 C 404.26126,366.86293 406.40326,359.98793 428.16326,359.66093 C 418.24126,352.02193 403.58526,335.21693 401.10426,329.54293 C 396.03026,328.77893 388.92826,328.66993 375.73726,321.35893 z "
         id="path2672"
         style="fill:#da121a;fill-opacity:1;fill-rule:evenodd;stroke:#da121a;stroke-width:1.19849002;stroke-opacity:1" />
      <path
         d="M 406.64026,330.40393 C 434.86326,366.66893 453.48026,369.68193 461.35026,381.47493 C 464.32026,386.21393 468.10726,389.85693 470.26026,390.58893 C 476.47826,390.89793 485.08726,390.74293 488.91426,390.12693 C 493.69826,383.95393 488.43626,379.63293 487.47926,374.84893 C 487.31926,367.13293 490.98826,363.58293 489.39226,357.25593 C 484.92826,360.18793 480.46426,364.04593 473.60826,363.27393 C 474.56426,355.86593 480.78226,356.32993 479.34826,348.92193 C 484.92826,342.44093 483.53126,338.92793 483.84926,336.14993 C 451.48426,339.99193 439.39326,330.93493 433.35426,331.59993 C 428.85126,332.05393 417.75726,333.15993 406.64026,330.40393 z "
         id="path2674"
         style="fill:#da121a;fill-opacity:1;fill-rule:evenodd;stroke:#da121a;stroke-width:1.19849002;stroke-opacity:1" />
      <path
         d="M 458.86626,386.77993 C 443.33126,424.07893 428.35726,438.11393 419.89826,446.44493 C 415.67426,450.57193 400.88526,446.81593 393.27726,447.24493 C 379.20226,447.93593 379.78426,454.70093 378.64526,459.84493 C 386.63826,458.92193 388.81726,454.45393 394.26326,454.60493 C 401.76526,455.64193 405.59026,455.27493 411.25226,455.60893 C 415.42226,454.42993 417.45926,454.84593 420.56226,454.46393 C 420.32026,458.24493 408.22126,464.24593 402.05126,469.13493 C 398.83726,474.16993 401.49126,478.55493 403.07526,480.00093 C 406.47126,477.32393 407.08426,477.55793 410.77726,476.31893 C 410.93426,467.54793 419.16526,467.27593 424.95826,459.69393 C 432.13926,463.87893 437.84526,460.71793 442.15026,457.22393 C 445.76026,459.16093 449.26426,469.48993 458.98726,476.41093 C 461.61126,472.23293 460.50226,470.84693 460.51926,468.20393 C 454.87026,464.60393 449.04126,458.64793 445.87626,450.69793 C 443.12326,438.91093 448.85726,432.40893 451.86626,428.35893 C 457.72526,434.08693 460.33626,436.28793 469.42526,434.33593 C 461.75126,430.24493 457.63826,428.47393 455.83326,423.73193 C 459.20626,419.33893 468.20426,408.66493 481.23426,396.63793 C 475.01626,395.61193 469.09626,396.02193 466.31726,394.50093 C 463.34226,393.26393 461.19126,389.33393 458.86626,386.77993 z "
         id="path2676"
         style="fill:#da121a;fill-opacity:1;fill-rule:evenodd;stroke:#da121a;stroke-width:1.19849002;stroke-opacity:1" />
      <path
         d="M 363.45226,118.55293 C 364.55326,115.13993 370.05126,112.05293 376.56426,108.31193 C 378.81726,110.50993 379.03726,112.05293 380.95126,113.59593 C 374.89126,115.13993 369.51026,117.00993 363.45226,118.55293 z "
         id="path2678"
         style="fill:#da121a;fill-opacity:1;fill-rule:evenodd;stroke:#da121a;stroke-width:1.19849002;stroke-opacity:1" />
      <path
         d="M 364.57526,120.67893 C 370.88826,118.93293 377.20226,117.84393 382.84026,115.76993 C 385.32126,118.38793 386.78626,121.33393 389.94226,123.29793 C 387.68826,123.95193 386.11026,124.60793 383.51626,125.26193 C 382.84026,125.26193 380.81126,124.60893 380.47226,121.98893 C 373.53926,122.48093 365.25126,121.33493 364.57526,120.67893 z "
         id="path2680"
         style="fill:#da121a;fill-opacity:1;fill-rule:evenodd;stroke:#da121a;stroke-width:1.19849002;stroke-opacity:1" />
      <path
         d="M 393.32526,121.66093 C 390.05626,119.26193 383.40426,110.74993 380.81126,106.60293 C 384.41926,104.63893 390.05526,99.727631 394.00226,97.435631 C 406.17826,91.760631 404.82526,98.200631 412.94226,98.090631 C 425.68326,98.199631 431.99526,111.73193 432.56026,124.60893 C 428.27526,122.20693 425.34526,119.15193 417.00126,113.80493 C 413.95826,111.84093 409.55926,106.92993 405.83926,109.54993 C 403.02026,112.60493 397.15826,115.98793 393.32526,121.66093 z "
         id="path2682"
         style="fill:#da121a;fill-opacity:1;fill-rule:evenodd;stroke:#da121a;stroke-width:1.19849002;stroke-opacity:1" />
      <path
         d="M 394.34026,102.83793 C 392.19826,104.20293 392.20526,108.07193 394.00226,109.71293 C 396.15126,111.67293 399.41426,109.93193 398.06126,108.07593 C 396.48126,105.78493 398.28626,102.51093 394.34026,102.83793 z "
         id="path2684"
         style="fill:#da121a;fill-opacity:1;fill-rule:evenodd;stroke:#ffffff;stroke-width:1.19849002;stroke-opacity:1" />
      <path
         d="M 377.59726,104.80293 C 373.53926,106.43893 370.49426,106.76693 368.80226,105.45693 C 366.77326,103.16493 365.42026,101.52863 364.74426,95.307631 C 366.88626,87.341631 372.41126,81.994431 378.94926,72.719731 C 380.30326,71.629131 383.34726,75.774731 387.06726,77.957231 C 386.05326,71.028931 386.72926,69.009131 388.42026,66.336131 C 390.78726,62.297831 395.86126,54.660831 396.87626,55.859931 C 399.13126,59.734431 396.65126,68.190831 399.24526,67.808831 C 404.37526,67.972731 403.75526,51.768531 414.63426,48.658131 C 417.22726,47.894031 412.04126,62.844931 415.31026,63.063031 C 422.75126,64.371831 424.44326,48.003731 431.54526,50.294731 C 437.40826,50.676731 444.96126,65.135831 445.07426,69.118831 C 445.18726,78.394731 440.22726,87.670531 435.94126,89.416831 C 428.21826,93.562631 421.51126,96.400631 410.74326,94.654631 C 411.64626,88.106831 398.68126,91.161631 396.53926,92.689631 C 393.04326,94.326631 391.91626,95.308631 388.75826,97.272631 C 387.40626,95.854631 386.05226,91.161631 384.70126,93.016631 C 384.36226,98.909631 382.33426,101.85593 377.59726,104.80293 z "
         id="path2686"
         style="fill:#da121a;fill-opacity:1;fill-rule:evenodd;stroke:#da121a;stroke-width:1.19849002;stroke-opacity:1" />
      <path
         d="M 396.16626,304.41993 C 402.22626,307.19793 417.18326,316.02793 432.47126,313.73593 C 429.92026,315.89593 428.04626,317.07493 425.49526,319.23493 C 433.43326,327.94293 440.13626,327.15993 449.97926,330.99693 C 462.39826,334.09893 482.42526,332.49393 485.62726,332.85393 C 484.61126,324.34193 487.36826,326.68593 485.56726,302.62393 C 481.22726,311.46293 480.90926,320.37693 470.08626,324.95993 C 469.12926,322.49093 469.52626,320.34893 470.26026,315.58793 C 466.11426,318.36593 464.33626,325.72693 449.36626,325.88593 C 451.39726,320.90993 453.42626,316.91593 458.16126,312.26793 C 453.83126,308.08593 443.07626,312.41693 431.64526,305.61793 C 444.35226,306.34793 453.67826,304.78593 461.65026,303.55093 C 461.33026,299.22993 461.69026,296.54493 460.01726,292.55093 C 453.18926,297.73193 447.37826,295.38593 438.68926,293.36493 C 413.74926,306.37993 406.05726,304.00793 396.16626,304.41993 z "
         id="path2688"
         style="fill:#da121a;fill-opacity:1;fill-rule:evenodd;stroke:#da121a;stroke-width:1.19849002;stroke-opacity:1" />
      <path
         d="M 442.03226,289.92993 C 447.44226,283.81893 448.79626,277.70893 450.82426,270.94293 C 453.86926,275.63493 458.26626,284.91093 458.60426,288.94793 C 455.55926,290.36593 450.48626,293.74993 442.03226,289.92993 z "
         id="path2690"
         style="fill:#da121a;fill-opacity:1;fill-rule:evenodd;stroke:#da121a;stroke-width:1.19849002;stroke-opacity:1" />
      <path
         d="M 424.10426,217.58093 C 443.15726,231.87693 448.00626,240.93293 449.47126,245.40793 C 451.95126,253.04693 451.72726,259.37593 451.50226,264.39593 C 457.70226,271.27093 463.90326,284.03793 465.36826,292.22193 C 467.62326,312.51893 457.02626,318.41193 455.89826,321.68493 C 460.63326,320.81193 467.39826,313.39293 473.48726,309.24593 C 473.93726,312.51893 473.03426,315.79293 472.80926,319.06693 C 476.07926,316.99393 483.40726,299.20593 484.64826,295.16893 C 491.18726,292.65893 491.18726,325.83193 489.38326,337.39993 C 489.83526,340.01993 482.84426,351.80393 479.91326,357.69693 C 483.74526,357.15093 490.28626,350.71193 495.47226,342.30993 C 495.47226,347.98493 496.14826,353.65893 497.50126,355.40493 C 500.20726,351.03993 498.37026,336.37393 504.26526,337.07093 C 501.45926,359.59993 505.16726,367.62693 507.98626,388.46993 C 510.80526,382.24993 508.88726,357.04293 512.38326,346.23893 C 514.86326,346.02093 522.75626,357.58693 527.94126,359.33393 C 522.98126,349.18393 513.96126,343.61993 513.05826,330.85193 C 514.41226,328.77893 523.20626,340.45393 529.29526,344.27393 C 532.90226,346.67493 535.83326,345.14793 538.08826,343.61993 C 528.73126,341.65593 513.96126,322.66793 512.04526,316.11993 C 504.83026,294.90393 504.30426,275.53593 471.94526,245.49693 C 451.99226,226.97593 445.86426,220.74593 424.10426,217.58093 z "
         id="path2692"
         style="fill:#da121a;fill-opacity:1;fill-rule:evenodd;stroke:#da121a;stroke-width:1.19849002;stroke-opacity:1" />
      <path
         d="M 478.39126,245.21693 C 467.03726,231.95893 476.54826,195.67893 487.00226,172.06593 C 494.03126,156.80993 518.15926,127.44793 566.40426,122.98993 C 600.88626,120.46593 630.63626,135.88393 646.76526,154.47293 C 643.51026,153.54193 640.43726,152.18693 637.19826,154.47293 C 640.36926,155.42693 675.34726,184.83193 653.46126,218.36293 C 658.12726,195.01793 640.31226,170.41693 620.93426,162.80693 C 595.36626,151.66693 564.56526,154.12593 536.74826,165.58493 C 517.20626,174.69693 488.43126,199.69193 486.04526,225.77093 C 495.12626,206.17493 509.00626,191.13993 514.74426,186.88093 C 502.69126,209.49493 503.80326,212.94493 503.26526,216.51193 C 495.83126,226.21593 484.89326,233.50293 478.39126,245.21693 z "
         id="path2694"
         style="fill:#da121a;fill-opacity:1;fill-rule:evenodd;stroke:#da121a;stroke-width:1.19849002;stroke-opacity:1" />
      <path
         d="M 527.65926,128.54593 C 542.80626,114.03993 616.31026,78.236731 629.54526,50.767531 C 625.71826,83.792531 596.06126,97.372631 592.23526,102.61993 C 602.91726,104.93493 625.08026,94.286631 641.50226,90.119631 C 629.06626,103.39093 605.15026,117.58993 597.49826,121.60193 C 564.97026,114.34893 543.92326,121.90993 527.65926,128.54593 z "
         id="path2696"
         style="fill:#da121a;fill-opacity:1;fill-rule:evenodd;stroke:#da121a;stroke-width:1.19849002;stroke-opacity:1" />
      <path
         d="M 508.04826,214.19593 C 516.38226,166.15993 566.54726,161.42493 574.25626,160.22093 C 572.02026,168.07493 565.36726,175.41993 561.14226,179.01093 C 593.03026,179.58493 600.49726,188.62093 618.06526,204.93693 C 589.84326,188.88693 572.12126,188.03593 555.00626,187.99793 C 545.44026,202.96793 529.57326,199.68993 508.04826,214.19593 z "
         id="path2698"
         style="fill:#da121a;fill-opacity:1;fill-rule:evenodd;stroke:#da121a;stroke-width:1.19849002;stroke-opacity:1" />
      <path
         d="M 579.69126,159.96393 C 578.33726,161.27393 572.25026,173.71293 568.86726,176.33193 C 574.28126,176.33193 577.32426,176.98693 580.03026,177.64193 C 583.52526,171.64093 587.01926,165.63893 592.54426,160.29193 C 588.93626,159.52793 583.97526,159.41793 579.69126,159.96393 z "
         id="path2700"
         style="fill:#da121a;fill-opacity:1;fill-rule:evenodd;stroke:#da121a;stroke-width:1.19849002;stroke-opacity:1" />
      <path
         d="M 557.36826,190.73693 C 555.67726,193.35593 553.98526,194.99393 552.29426,196.95793 C 556.69226,196.95793 565.51326,197.24693 569.54426,196.30193 C 570.49426,193.18093 571.12326,193.35593 572.25026,191.71893 C 569.31926,191.28193 564.02126,190.84693 557.36826,190.73693 z "
         id="path2702"
         style="fill:#da121a;fill-opacity:1;fill-rule:evenodd;stroke:#da121a;stroke-width:1.19849002;stroke-opacity:1" />
      <path
         d="M 481.74026,248.45693 C 489.87226,233.95093 520.62226,203.90493 553.96926,201.23493 C 567.71226,200.20993 609.93326,197.06593 627.15326,221.14093 C 603.71526,204.93793 564.01226,208.64193 545.83726,219.75293 C 518.09226,223.14793 498.96126,245.06093 489.39326,256.78993 C 486.84326,253.70293 486.20326,252.46893 481.74026,248.45693 z "
         id="path2704"
         style="fill:#da121a;fill-opacity:1;fill-rule:evenodd;stroke:#da121a;stroke-width:1.19849002;stroke-opacity:1" />
      <path
         d="M 491.30726,258.64193 C 493.22026,261.41993 495.13426,264.19793 497.04626,266.97593 C 499.59726,264.81393 530.84926,228.39493 575.01426,242.43793 C 567.67926,235.03093 563.21626,232.25293 557.79526,232.25293 C 558.43326,230.40193 564.81026,228.54893 577.88426,228.54893 C 534.67526,212.65393 505.81726,243.05593 491.30726,258.64193 z "
         id="path2706"
         style="fill:#da121a;fill-opacity:1;fill-rule:evenodd;stroke:#da121a;stroke-width:1.19849002;stroke-opacity:1" />
      <path
         d="M 560.66526,218.82593 C 564.65126,214.65993 599.25226,212.34493 608.97626,216.51193 C 633.53026,223.14793 659.05526,246.40293 663.50626,278.08693 C 673.87426,349.73293 641.50226,378.39693 646.28626,452.16393 C 633.53226,427.78193 633.21126,410.80593 635.76326,389.20093 C 623.00826,399.23193 614.07826,408.33793 609.93326,427.62793 C 602.12026,394.44793 628.84726,380.13193 639.11126,350.77293 C 650.21426,319.01793 645.25726,288.61493 640.06726,272.53193 C 630.26926,242.16293 608.18026,218.51793 560.66526,218.82593 z "
         id="path2708"
         style="fill:#da121a;fill-opacity:1;fill-rule:evenodd;stroke:#da121a;stroke-width:1.19849002;stroke-opacity:1" />
      <path
         d="M 568.31826,232.25293 C 574.93526,235.03093 578.33026,240.40293 583.90326,248.02093 C 595.07226,258.91193 607.51526,270.56093 608.97726,285.03193 C 611.14326,307.83293 604.97426,322.89193 595.10526,330.86593 C 584.42126,338.72693 572.14626,342.28593 547.74926,335.49593 C 561.46226,346.76193 566.95726,346.78793 577.40626,347.06993 C 587.91926,347.37893 605.15026,343.36593 623.80526,322.53193 C 626.67526,344.75693 605.62926,354.93993 606.58526,354.93993 C 607.54126,355.86593 639.11226,353.08893 639.11226,302.16193 C 639.11226,257.40593 608.18026,227.46893 577.88626,223.45593 C 591.11926,228.23993 591.91626,234.87593 591.75726,239.66093 C 584.58226,231.32593 576.44926,232.25293 568.31826,232.25293 z "
         id="path2710"
         style="fill:#da121a;fill-opacity:1;fill-rule:evenodd;stroke:#da121a;stroke-width:1.19849002;stroke-opacity:1" />
      <path
         d="M 499.43826,269.28993 C 512.19426,256.63493 532.78126,245.94193 549.18426,244.28993 C 585.27626,240.75193 610.73026,282.87093 605.15026,302.62393 C 602.28026,295.83393 599.41026,291.82093 595.58326,291.51393 C 612.00626,320.37193 585.53926,333.64393 577.88626,334.56893 C 582.98826,328.08793 584.26326,310.49493 580.75426,304.93893 C 574.05826,311.11193 571.18926,317.28593 562.57826,316.97693 C 571.50726,310.80393 568.95626,308.33493 572.14626,304.01293 C 567.36126,304.93893 559.70826,312.34693 546.31426,312.34693 C 556.52026,307.71793 554.28726,291.97593 553.96926,287.34693 C 548.54826,289.19793 548.86726,295.67893 543.44626,301.23493 C 545.04026,294.44493 543.76326,293.20993 543.44426,289.19793 C 538.34226,298.14993 531.32726,299.69293 528.13726,297.53193 C 533.24026,293.82793 531.57026,284.65093 529.09426,282.71693 C 523.27826,278.16993 513.78926,279.93893 508.04826,286.41993 C 506.13426,281.01893 502.30826,273.76593 499.43826,269.28993 z "
         id="path2712"
         style="fill:#da121a;fill-opacity:1;fill-rule:evenodd;stroke:#da121a;stroke-width:1.19849002;stroke-opacity:1" />
      <path
         d="M 532.44326,366.51493 C 546.63326,365.43393 555.08526,362.50293 565.44826,351.23693 C 586.49526,352.47093 598.93126,350.00193 617.10826,336.42193 C 616.47026,342.59393 603.39626,354.32393 597.97526,355.86593 C 601.48126,358.02693 604.99026,360.18693 608.49826,358.64393 C 603.71426,368.21193 600.84526,377.78193 599.88826,401.23793 C 596.06226,394.75693 594.62626,384.10693 596.54026,370.21793 C 588.88626,372.99693 589.36426,398.45993 589.36426,398.45993 C 586.81326,390.43593 586.17526,392.59693 587.45226,377.16393 C 577.56726,388.58293 573.42026,405.55993 572.14626,437.34893 C 560.50626,421.30093 567.99926,388.58293 570.71026,377.16393 C 564.97026,383.64493 540.57626,397.06993 529.09526,385.03293 C 538.66126,384.10693 553.01126,377.62593 559.70826,366.51393 C 547.11126,369.29193 538.34226,371.14493 532.44326,366.51493 z "
         id="path2714"
         style="fill:#da121a;fill-opacity:1;fill-rule:evenodd;stroke:#da121a;stroke-width:1.19849002;stroke-opacity:1" />
      <path
         d="M 509.00626,290.12493 C 514.10826,320.37193 527.34126,324.79193 544.87926,327.72493 C 527.31826,317.04893 518.97926,303.57893 515.22426,294.29193 C 520.32626,295.37193 521.60126,292.74793 527.18226,291.51393 C 527.50026,288.11893 526.38426,284.72193 523.35526,284.56893 C 515.70126,284.25993 513.31026,286.72893 509.00626,290.12493 z "
         id="path2716"
         style="fill:#da121a;fill-opacity:1;fill-rule:evenodd;stroke:#da121a;stroke-width:1.19849002;stroke-opacity:1" />
      <g
         id="g2718"
         transform="translate(2.1072627,1.5409313)">
        <path
           id="path2720"
           d="M 273.078,478.46 C 273.078,464.598 284.311,453.348 298.152,453.348 C 311.993,453.348 341.623,453.348 355.464,453.348 C 369.305,453.348 380.538,442.098 380.538,428.237 L 380.538,241.94 L 165.618,241.94 L 165.618,428.237 C 165.618,442.098 176.851,453.348 190.692,453.348 C 204.533,453.348 234.163,453.348 248.004,453.348 C 261.845,453.348 273.078,464.598 273.078,478.46 z " />
        <path
           style="fill:#ffffff;fill-rule:evenodd;stroke:#000000;stroke-width:2.99913001"
           id="path2722"
           d="M 165.633,242 L 380.507,242 L 380.507,283.406 L 165.633,283.406 L 165.633,242 z " />
        <g
           id="g2724">
          <path
             style="fill:#e20909;fill-rule:evenodd"
             id="path2726"
             d="M 274.9,267.909 C 274.955,265.533 275.542,263.325 276.637,261.233 C 279.501,255.207 288.251,255.351 286.322,262.721 C 285.611,265.437 283.197,267.033 280.329,267.307 C 280.536,266.592 281.674,264.062 280.755,263.567 C 279.285,263.622 277.46,266.163 277.021,267.374 C 276.958,267.548 276.975,267.749 276.905,267.92" />
          <g
             id="g2728">
            <path
               style="fill:#e20909;fill-rule:evenodd"
               id="path2730"
               d="M 271.256,268.066 C 271.202,265.69 270.614,263.482 269.52,261.39 C 266.655,255.364 257.906,255.508 259.835,262.878 C 260.545,265.594 262.96,267.191 265.828,267.464 C 265.621,266.749 264.482,264.219 265.401,263.724 C 266.871,263.779 268.697,266.32 269.135,267.531 C 269.199,267.705 269.181,267.906 269.252,268.077" />
            <path
               style="fill:#e20909"
               id="path2732"
               d="M 272.909,245.052 C 269.891,248.305 267.865,252.067 268.738,256.478 C 269.22,258.912 270.388,261.167 271.212,263.511 C 271.728,264.983 271.859,266.519 271.798,268.066 L 274.359,268.066 C 274.236,266.508 274.505,264.998 274.945,263.511 C 275.73,261.152 276.924,258.914 277.419,256.478 C 278.344,251.924 276.172,248.49 273.261,245.066 L 273.083,244.839 L 272.909,245.052 z " />
            <path
               style="fill:#e20909;fill-rule:evenodd"
               id="path2734"
               d="M 270.521,269.869 C 269.986,271.369 267.803,274.117 266.644,274.9 C 266.343,275.103 268.081,274.783 268.859,274.612 C 269.88,274.388 271.206,273.301 271.175,273.685 C 271.172,275.442 271.666,278.375 272.954,279.722 L 273.076,279.852 L 273.202,279.722 C 274.49,278.22 274.975,275.58 274.982,273.685 C 274.951,273.301 276.277,274.388 277.298,274.612 C 278.076,274.783 279.814,275.103 279.513,274.9 C 278.354,274.117 276.172,271.369 275.637,269.869 L 270.521,269.869 z " />
            <path
               style="fill:#e20909"
               id="path2736"
               d="M 266.994,267.989 L 279.182,267.989 L 279.182,269.964 L 266.994,269.964 L 266.994,267.989 z " />
          </g>
        </g>
        <g
           id="g2738">
          <path
             style="fill:#e20909;fill-rule:evenodd;stroke:#000000;stroke-width:3"
             id="path2740"
             d="M 171.323,286.983 L 195.443,286.983 L 195.443,311.103 L 171.323,311.103 L 171.323,286.983 z " />
          <path
             style="fill:#ffffff;fill-rule:evenodd;stroke:#000000;stroke-width:3"
             id="path2742"
             d="M 196.934,286.983 L 221.054,286.983 L 221.054,311.103 L 196.934,311.103 L 196.934,286.983 z " />
          <path
             style="fill:#e20909;fill-rule:evenodd;stroke:#000000;stroke-width:3"
             id="path2744"
             d="M 222.545,286.983 L 246.665,286.983 L 246.665,311.103 L 222.545,311.103 L 222.545,286.983 z " />
          <path
             style="fill:#ffffff;fill-rule:evenodd;stroke:#000000;stroke-width:3"
             id="path2746"
             d="M 248.157,286.983 L 272.277,286.983 L 272.277,311.103 L 248.157,311.103 L 248.157,286.983 z " />
          <path
             style="fill:#e20909;fill-rule:evenodd;stroke:#000000;stroke-width:3"
             id="path2748"
             d="M 273.768,286.983 L 297.888,286.983 L 297.888,311.103 L 273.768,311.103 L 273.768,286.983 z " />
          <path
             style="fill:#ffffff;fill-rule:evenodd;stroke:#000000;stroke-width:3"
             id="path2750"
             d="M 299.38,286.983 L 323.5,286.983 L 323.5,311.103 L 299.38,311.103 L 299.38,286.983 z " />
          <path
             style="fill:#e20909;fill-rule:evenodd;stroke:#000000;stroke-width:3"
             id="path2752"
             d="M 324.991,286.983 L 349.111,286.983 L 349.111,311.103 L 324.991,311.103 L 324.991,286.983 z " />
          <path
             style="fill:#ffffff;fill-rule:evenodd;stroke:#000000;stroke-width:3"
             id="path2754"
             d="M 350.603,286.983 L 374.723,286.983 L 374.723,311.103 L 350.603,311.103 L 350.603,286.983 z " />
        </g>
        <g
           id="g2756">
          <path
             style="fill:#e20909;fill-rule:evenodd;stroke:#000000;stroke-width:3"
             id="path2758"
             d="M 184.128,314.343 L 208.248,314.343 L 208.248,338.463 L 184.128,338.463 L 184.128,314.343 z " />
          <path
             style="fill:#ffffff;fill-rule:evenodd;stroke:#000000;stroke-width:3"
             id="path2760"
             d="M 209.74,314.343 L 233.86,314.343 L 233.86,338.463 L 209.74,338.463 L 209.74,314.343 z " />
          <path
             style="fill:#e20909;fill-rule:evenodd;stroke:#000000;stroke-width:3"
             id="path2762"
             d="M 235.351,314.343 L 259.471,314.343 L 259.471,338.463 L 235.351,338.463 L 235.351,314.343 z " />
          <path
             style="fill:#ffffff;fill-rule:evenodd;stroke:#000000;stroke-width:3"
             id="path2764"
             d="M 260.963,314.343 L 285.083,314.343 L 285.083,338.463 L 260.963,338.463 L 260.963,314.343 z " />
          <path
             style="fill:#e20909;fill-rule:evenodd;stroke:#000000;stroke-width:3"
             id="path2766"
             d="M 286.574,314.343 L 310.694,314.343 L 310.694,338.463 L 286.574,338.463 L 286.574,314.343 z " />
          <path
             style="fill:#ffffff;fill-rule:evenodd;stroke:#000000;stroke-width:3"
             id="path2768"
             d="M 312.185,314.343 L 336.305,314.343 L 336.305,338.463 L 312.185,338.463 L 312.185,314.343 z " />
          <path
             style="fill:#e20909;fill-rule:evenodd;stroke:#000000;stroke-width:3"
             id="path2770"
             d="M 337.797,314.343 L 361.917,314.343 L 361.917,338.463 L 337.797,338.463 L 337.797,314.343 z " />
        </g>
        <path
           style="fill:#ffffff;fill-rule:evenodd;stroke:#000000;stroke-width:3"
           id="path2772"
           d="M 308.601,395.092 L 305.6,390.954 L 296.957,392.506 L 287.195,375.728 L 292.884,369.024 L 290.809,364.354 L 285.72,364.883 L 282.747,373.122 L 263.231,373.174 L 260.27,364.923 L 255.181,364.382 L 253.094,369.048 L 258.775,375.759 L 249.088,392.613 L 240.457,391.053 L 237.445,395.179 L 240.446,399.316 L 249.096,397.764 L 258.858,414.543 L 253.165,421.25 L 255.241,425.916 L 260.329,425.391 L 263.306,417.14 L 282.783,417.089 L 285.748,425.348 L 290.836,425.889 L 292.924,421.226 L 287.258,414.535 L 296.957,397.658 L 305.588,399.221 L 308.601,395.092 z " />
        <path
           style="fill:#fcef3c;stroke:#000000;stroke-width:3"
           id="path2774"
           d="M 273.048,339.958 L 275.102,346.201 L 281.648,346.193 L 276.333,350.072 L 278.363,356.283 L 273.025,352.437 L 267.733,356.283 L 269.749,350.027 L 264.448,346.193 L 271.033,346.174 L 273.048,339.958 z " />
        <path
           style="fill:#fcef3c;stroke:#000000;stroke-width:3"
           id="path2776"
           d="M 273.048,436.438 L 275.102,442.681 L 281.648,442.673 L 276.333,446.552 L 278.363,452.763 L 273.025,448.917 L 267.733,452.763 L 269.749,446.507 L 264.448,442.673 L 271.033,442.654 L 273.048,436.438 z " />
        <path
           style="fill:#fcef3c;stroke:#000000;stroke-width:3"
           id="path2778"
           d="M 225.528,384.598 L 227.582,390.841 L 234.128,390.833 L 228.813,394.712 L 230.843,400.923 L 225.505,397.077 L 220.213,400.923 L 222.229,394.667 L 216.928,390.833 L 223.513,390.814 L 225.528,384.598 z " />
        <path
           style="fill:#fcef3c;stroke:#000000;stroke-width:3"
           id="path2780"
           d="M 319.848,384.598 L 321.902,390.841 L 328.448,390.833 L 323.133,394.712 L 325.163,400.923 L 319.825,397.077 L 314.533,400.923 L 316.549,394.667 L 311.248,390.833 L 317.833,390.814 L 319.848,384.598 z " />
        <path
           style="fill:#fcef3c;stroke:#000000;stroke-width:3"
           id="path2782"
           d="M 247.848,347.878 L 249.902,354.121 L 256.448,354.113 L 251.133,357.992 L 253.163,364.203 L 247.825,360.357 L 242.533,364.203 L 244.549,357.947 L 239.248,354.113 L 245.833,354.094 L 247.848,347.878 z " />
        <path
           style="fill:#fcef3c;stroke:#000000;stroke-width:3"
           id="path2784"
           d="M 232.728,362.998 L 234.782,369.241 L 241.328,369.233 L 236.013,373.112 L 238.043,379.323 L 232.705,375.477 L 227.413,379.323 L 229.429,373.067 L 224.128,369.233 L 230.713,369.214 L 232.728,362.998 z " />
        <path
           style="fill:#fcef3c;stroke:#000000;stroke-width:3"
           id="path2786"
           d="M 313.368,362.998 L 315.422,369.241 L 321.968,369.233 L 316.653,373.112 L 318.683,379.323 L 313.345,375.477 L 308.053,379.323 L 310.069,373.067 L 304.768,369.233 L 311.353,369.214 L 313.368,362.998 z " />
        <path
           style="fill:#fcef3c;stroke:#000000;stroke-width:3"
           id="path2788"
           d="M 298.248,347.878 L 300.302,354.121 L 306.848,354.113 L 301.533,357.992 L 303.563,364.203 L 298.225,360.357 L 292.933,364.203 L 294.949,357.947 L 289.648,354.113 L 296.233,354.094 L 298.248,347.878 z " />
        <path
           style="fill:#fcef3c;stroke:#000000;stroke-width:3"
           id="path2790"
           d="M 313.368,406.198 L 315.422,412.441 L 321.968,412.433 L 316.653,416.312 L 318.683,422.523 L 313.345,418.677 L 308.053,422.523 L 310.069,416.267 L 304.768,412.433 L 311.353,412.414 L 313.368,406.198 z " />
        <path
           style="fill:#fcef3c;stroke:#000000;stroke-width:3"
           id="path2792"
           d="M 298.248,428.518 L 300.302,434.761 L 306.848,434.753 L 301.533,438.632 L 303.563,444.843 L 298.225,440.997 L 292.933,444.843 L 294.949,438.587 L 289.648,434.753 L 296.233,434.734 L 298.248,428.518 z " />
        <path
           style="fill:#fcef3c;stroke:#000000;stroke-width:3"
           id="path2794"
           d="M 247.848,428.518 L 249.902,434.761 L 256.448,434.753 L 251.133,438.632 L 253.163,444.843 L 247.825,440.997 L 242.533,444.843 L 244.549,438.587 L 239.248,434.753 L 245.833,434.734 L 247.848,428.518 z " />
        <path
           style="fill:#fcef3c;stroke:#000000;stroke-width:3"
           id="path2796"
           d="M 232.728,406.198 L 234.782,412.441 L 241.328,412.433 L 236.013,416.312 L 238.043,422.523 L 232.705,418.677 L 227.413,422.523 L 229.429,416.267 L 224.128,412.433 L 230.713,412.414 L 232.728,406.198 z " />
        <path
           style="fill:none;stroke:#000000;stroke-width:3;stroke-linecap:round;stroke-linejoin:round"
           id="path2798"
           d="M 273.078,478.46 C 273.078,464.598 284.311,453.349 298.152,453.349 C 311.993,453.349 341.623,453.349 355.464,453.349 C 369.305,453.349 380.538,442.099 380.538,428.237 L 380.538,241.94 L 165.618,241.94 L 165.618,428.237 C 165.618,442.099 176.851,453.349 190.692,453.349 C 204.533,453.349 234.163,453.349 248.004,453.349 C 261.845,453.349 273.078,464.598 273.078,478.46 z " />
      </g>
      <path
         style="fill:#da121a;fill-opacity:1;fill-rule:evenodd;stroke:#da121a;stroke-width:1.19849002;stroke-opacity:1"
         id="path2800"
         d="M 274.10726,227.29093 C 270.60726,227.16593 267.66226,228.78693 251.36026,233.68593 C 232.09726,235.82493 228.30226,239.84093 229.77926,248.85393 C 240.47626,244.64193 250.14226,241.11393 261.02926,242.30193 C 256.06926,249.83193 249.51426,254.28593 249.96526,256.57793 C 250.19026,261.92393 251.99926,264.45493 257.29826,265.80793 C 253.23226,253.29093 264.35726,246.41593 269.47426,243.22093 C 269.19126,242.29293 276.96326,243.37093 285.98226,242.54093 C 284.86026,256.27393 285.90826,257.33093 296.35726,258.29093 C 289.85726,253.16593 289.52026,249.95093 291.10726,241.41593 C 291.10726,241.41593 323.83326,241.61493 323.73226,241.54093 C 317.73226,237.16593 277.60726,227.41593 274.10726,227.29093 z " />
    </g>
  </g>
</svg>
